<svg width="1318" height="1024" viewBox="0 0 1318 1024" fill="none" xmlns="http://www.w3.org/2000/svg">
<g clip-path="url(#clip0_2023_77)">
<path d="M473.356 240.925L478.49 239.063L509.346 194.085C514.748 193.001 515.259 193.55 512.986 198.346C509.205 206.293 495.591 221.358 489.64 229.828C486.127 234.841 483.611 241.282 480.278 245.964C477.481 249.893 470.623 258.579 465.681 257.521C465.016 262.7 466.255 263.235 470.776 264.511C468.746 267.7 463.969 266.922 463.152 270.914C462.22 275.43 472.973 270.799 473.931 270.812C476.025 270.838 482.092 274.091 485.119 273.848C491.709 273.312 500.112 264.09 507.57 264.957C516.868 241.754 537.277 224.1 554.939 207.173C571.044 191.738 586.765 172.554 611.708 170.793C624.454 169.9 619.69 171.992 625.118 177.885C627.212 180.156 630.431 179.926 631.938 182.643C635.169 188.447 634.62 209.903 634.096 217.352C633.828 221.217 630.328 224.84 633.521 226.894C646.561 224.496 659.753 222.263 672.882 220.414C683.138 218.972 692.665 219.062 703.483 220.694C708.144 221.396 712.665 222.608 716.969 224.534V228.833C729 231.32 740.609 236.665 751.043 243.208C755.36 240.976 761.285 239.637 765.398 237.609C777.467 231.652 781.439 226.205 796.93 224.483C822 221.702 850.289 216.74 875.895 216.714C882.064 216.714 886.917 221.294 893.06 222.506C912.191 226.294 914.963 228.169 931.514 237.609C939.918 242.405 943.558 234.445 950.952 230.478C956.802 227.34 977.299 219.227 983.136 219.457C988.973 219.687 997.414 224.649 1002.57 225.388C1005.01 225.733 1013.17 226.779 1015.12 226.868C1019.94 227.072 1033.29 220.477 1039.56 219.585C1055.73 217.263 1068.09 220.299 1082.61 220.643C1093.37 220.898 1097.92 217.378 1110.01 222.48C1122.09 227.582 1113.08 228.22 1112.56 230.351C1110.45 238.833 1113.82 252.648 1110.47 263.656C1108.61 269.715 1099.16 279.843 1098.56 283.721C1097.87 288.186 1100.68 293.084 1101.09 297.638C1102.45 312.907 1097.61 331.416 1088.91 344.069C1087.63 345.932 1075.92 358.152 1076.86 359.415C1078.53 359.415 1079.56 360.231 1080.52 361.494C1101.45 389.149 1105.09 419.878 1113.17 452.52C1114.44 457.61 1117.82 462.674 1118.26 468.835C1118.96 478.593 1114.31 485.367 1113.86 494.513C1115.32 496.005 1134.25 488.135 1137.84 487.242C1144.71 485.545 1153.95 484.18 1160.59 483.402C1168.63 482.471 1164.88 486.285 1165.01 488.849C1165.14 491.642 1168.49 493.058 1164.87 498.339L1152.8 491.898L1151.3 494.513C1138.33 494.959 1125.13 497.88 1112.62 501.567C1109.65 506.95 1091.65 549.376 1088.98 549.286L1086.34 545.434C1090.95 533.214 1102.37 517.358 1104.43 504.794C1104.64 503.467 1103.89 502.37 1102.96 502.179C1100.48 501.669 1085.29 506.159 1080.98 506.899C1054.07 511.554 1028.45 519.501 1002.57 527.984C996.393 530.012 988.168 532.168 982.459 534.655C978.922 536.199 965.729 546.276 963.315 542.921C960.531 539.056 978.206 529.693 981.412 528.507C990.058 525.305 1001.72 523.749 1010.79 520.892C1027.47 515.636 1046.19 507.906 1063.02 504.258C1070.11 502.715 1105.28 499.066 1108.1 494.487C1110.16 484.117 1114.22 475.57 1112.51 464.638C1111.92 460.901 1108.95 458.171 1108.09 455.033C1104.8 442.979 1102.92 413.717 1090.19 409.137C1085.64 407.505 1083.38 409.596 1080.16 409.125C1078.27 408.844 1076.88 407.007 1074.89 406.637C1061.1 404.099 1052.78 420.235 1039.84 417.39C1039.92 413.13 1053.95 407.607 1055.12 399.468C1056 393.371 1053.19 387.911 1049.85 383.154C1048.27 380.896 1045.06 381.559 1046.23 377.273C1055.2 375.245 1058.72 380.959 1064.48 383.893C1073.95 388.715 1083.54 393.728 1093.43 397.657C1094.41 396.624 1090.85 389.2 1090.08 387.631C1088.7 384.825 1076.14 364.313 1074.91 363.267C1070.42 359.377 1065.86 368.625 1064.09 361.366C1078.75 349.21 1089.88 336.39 1094.12 317.422C1095.05 313.264 1097.2 302.523 1097.06 298.85C1096.89 294.513 1093.51 289.717 1094.02 284.18C1094.68 276.961 1102.34 270.863 1104.8 263.082C1106.42 257.929 1109.16 239.994 1106.86 235.797C1105.27 233.616 1105.01 235.453 1103.53 236.32C1099.76 238.527 1097.71 242.06 1094.6 243.987C1087.15 248.63 1065.42 256.959 1056.74 259.689C1041.32 264.536 1020.38 264.575 1010.03 279.257C1006.51 284.244 1001.31 302.294 998.513 304.756C997.082 306.019 995.741 306.07 993.928 305.917C991.45 298.85 995.256 299.283 997.006 295.597C1006.09 276.552 1007.16 269.001 1028.96 261.258C1056.38 251.525 1067.47 251.653 1093.05 234.79C1096.8 232.315 1103.47 232.175 1103.63 226.906L1064.78 223.029C1059.1 222.965 1038.7 224.138 1034.34 225.848C1032.28 226.651 1032.24 228.947 1030.93 229.968C1029.97 230.72 1027.22 229.713 1026.09 230.937C1024.66 232.481 1025.03 237.609 1022.51 238.246C999.113 231.83 987.976 218.437 963.673 231.728C956.814 235.478 950.212 238.387 944.222 241.588C942.178 242.673 941.182 245.938 938.436 245.977C931.936 246.079 924.771 237.392 919.56 235.504C916.291 234.318 912.843 234.815 909.701 233.259C913.507 243.234 920.748 253.528 920.748 264.715C920.748 268.81 917.44 271.029 917.236 274.665C916.878 281.004 919.484 312.001 921.361 317.856C921.974 319.782 927.096 319.897 925.001 322.435C924.746 322.742 918.373 326.262 917.964 326.3C912.715 326.9 907.159 320.637 904.797 316.517C898.437 305.406 902.166 279.269 900.621 265.888C899.701 257.929 892.983 246.193 893.022 238.948C893.034 236.69 893.545 234.509 896.278 234.534L901.387 242.175L903.175 230.172C902.511 227.174 896.585 228.59 894.031 227.876C884.069 225.07 876.457 221.026 865.04 223.08C864.401 228.526 872.383 224.674 874.593 226.843C875.04 227.417 878.718 239.394 878.845 240.619C879.254 244.408 877.492 249.446 878.156 253.962C879.458 262.84 883.775 272.509 885.257 282.522C888.079 301.567 891.936 335.434 890.646 353.7C890.199 360.027 886.738 369.658 887.121 375.207C888.296 391.853 895.103 401.943 893.085 422.518C892.191 431.613 887.951 426.728 885.972 429.419L885.231 440.147L882.294 442.277L871.502 437.634L870.097 385.564C869.114 357.195 860.557 328.928 857.364 301.439C856.892 297.383 855.333 276.387 856.049 273.67C856.432 272.241 859.369 272.317 859.74 270.8C860.033 269.575 857.875 259.523 857.837 256.64C857.773 251.168 860.685 227.264 857.415 224.891C851.221 223.973 844.503 227.468 838.743 228.08C835.666 228.412 830.915 225.975 826.739 228.195L829.586 238.17L833.124 238.374C830.621 242.992 831.515 248.719 830.544 252.788C830.263 253.962 827.837 253.107 827.977 255.416C828.041 256.564 831.26 266.858 831.949 269.486C837.607 291.03 847.62 314.016 841.349 336.543C836.457 337.449 833.456 333.495 829.242 331.798C829.676 326.198 826.228 321.504 824.542 316.364C818.246 297.064 815.857 276.565 810.212 258.044C807.454 248.987 809.191 239.025 806.355 229.981C803.967 228.271 779.357 235.555 775.321 237.354C770.928 239.305 760.787 248.081 759.497 248.426C756.228 249.293 755.27 245.747 752.742 244.739C752.026 248.005 757.237 249.893 753.342 252.393C750.085 253.069 737.531 244.05 733.176 241.971C728.565 239.752 723.112 238.731 718.208 236.537C711.452 233.514 699.562 225.644 692.052 224.419C674.683 221.6 651.082 231.486 633.317 233.182L634.913 240.963C640.456 239.956 644.16 241.04 648.911 241.716C674.619 245.351 703.38 253.541 720.072 275.443C722.716 278.899 741.081 310.828 740.8 312.958C740.634 314.182 738.859 315.114 738.054 316.096C727.735 306.733 725.526 291.706 717.569 280.507C703.112 260.187 676.829 252.342 653.253 247.89C646.791 246.665 641.912 246.091 635.348 247.303C637.902 252.418 635.565 256.143 635.348 260.697C635.13 265.621 635.897 271.131 635.233 275.864C634.454 281.374 628.936 285.941 630.162 291.069C630.405 292.064 641.925 296.209 643.713 302.039C645.846 308.991 643.406 320.535 644.275 328.227C645.194 336.314 655.079 353.101 661.49 358.19C665.066 361.035 680.354 366.482 680.788 367.693C681.094 368.561 680.494 371.967 681.273 373.459L678.093 371.099L663.598 390.858L659.6 405.323L662.768 401.535C675.13 404.775 681.95 421.995 692.729 426.396C694.823 427.251 702.218 429.164 701.043 425.784L699.14 420.643C704.376 418.959 709.74 422.875 713.891 423.105C718.616 423.36 728.731 417.046 729.817 425.133C730.2 427.991 726.011 427.582 725.947 428.922C725.922 429.419 730.762 433.552 729.753 435.925C721.337 436.805 713.942 436.779 705.526 435.937C704.466 436.843 720.634 455.862 721.541 458.796C722.639 462.355 721.975 466.067 722.116 469.69C718.757 472.317 716.752 467.253 714.479 466.029C713.393 465.442 711.797 466.896 709.281 464.753C703.904 460.186 697.71 447.443 692.142 441.014C687.225 435.338 680.762 430.503 675.347 425.299C671.937 422.021 667.237 419.074 665.232 416.931C662.716 414.24 662.295 408.487 658.336 406.637L650.686 455.709C651.439 470.162 648.77 484.231 651.222 498.467C664.951 500.355 679.37 503.352 693.253 499.742L694.772 500.929C693.176 508.825 707.952 508.493 714.453 510.496C720.251 512.269 725.653 514.845 731.528 516.376C751.056 521.479 771.515 519.17 791.324 524.196C794.555 525.012 808.999 529.885 810.902 531.466C813.622 533.724 810.519 536.008 813.341 537.857C824.197 528.609 830.787 538.814 834.427 548.598C825.947 554.453 816.994 545.166 810.161 542.322C808.705 541.709 797.428 538.214 796.726 538.291C792.409 538.725 795.232 546.187 791.681 545.498C785.806 544.375 790.276 538.559 787.211 535.944C779.561 535.191 771.196 529.617 764.58 527.971C756.586 525.981 745.909 525.535 737.16 523.494C710.021 517.167 694.517 512.154 665.398 511.07C634.798 509.934 612.87 514.335 583.534 519.897C573.062 521.887 564.824 521.262 554.096 526.173C547.162 529.349 536.6 542.819 529.486 535.969L534.556 532.079L531.964 527.04L534.096 523.979C537.749 522.869 540.367 526.708 543.815 526.211C546.625 525.803 549.435 522.627 552.155 521.695C557.902 519.757 566.472 517.894 572.564 516.593C575.961 515.866 588.579 515.343 588.975 513.06L588.272 509.411C589.984 503.71 618.004 506.388 623.279 506.082C627.761 503.71 644.198 506.605 645.437 502.664L644.913 447.418C642.295 457.1 635.807 457.431 629.818 461.628C626.548 463.911 616.395 470.557 614.517 472.828C613.445 474.129 613.483 475.136 613.662 476.705L599.894 474.601L597.161 469.626L610.814 467.508C615.424 454.944 623.33 444.892 633.726 436.601L619.358 406.65C618.566 404.316 620.469 402.045 620.137 399.787C619.958 398.563 615.948 399.672 617.493 396.445L627.033 393.881L628.374 395.131C627.033 401.241 633.726 404.073 634.658 406.561C635.59 409.048 631.669 422.837 637.289 425.733C639.485 426.868 640.545 419.304 642.704 418.436C647.723 405.961 639.894 406.293 637.212 400.208C636.229 397.989 637.812 396.075 637.34 393.856C636.522 389.952 631.095 387.899 637.736 386.087L637.646 383.383C633.585 378.498 633.687 369.479 630.839 364.606C628.898 361.29 624.185 358.254 621.95 351.851C618.247 341.238 626.229 340.893 627.621 332.002C628.387 327.079 628.4 302.421 627.123 298.237C625.629 293.352 609.383 282.918 604.709 278.568C591.618 266.373 581.606 249.395 575.552 232.647C579.09 227.889 584.352 231.868 589.754 230.453C593.023 229.585 595.718 225.235 600.329 224.457C609.958 222.825 617.174 227.493 626.357 226.881C628.783 215.911 630.839 199.048 627.659 188.128C626.459 183.996 619.766 182.49 618.4 177.605C611.618 173.191 589.115 183.358 582.615 187.669C568.247 197.198 557.672 214.061 546.05 226.345C536.6 236.32 521.657 248.094 514.85 260.174C511.721 265.723 510.099 272.981 509.691 279.206C502.398 283.428 507.698 272.241 504.493 271.578L491.159 276.68L493.739 283.02C496.766 284.793 496.178 277.994 498.809 280.494C499.065 280.736 498.043 283.198 498.235 284.474C498.886 288.862 500.342 289.959 497.507 294.487L491.159 290.086C487.545 282.548 481.096 276.246 472.028 277.943C474.135 282.509 474.799 287.484 476.217 292.217C481.555 309.973 487.532 334.949 491.032 353.879C491.606 357.004 490.712 360.448 491.428 363.688C492.283 367.54 504.569 377.005 494.991 376.763C485.923 376.546 489.703 377.069 482.82 382.477C477.941 383.587 475.668 373.255 475.259 369.556L472.194 369.505C472.309 361.29 466.6 365.844 464.659 358.56C462.833 351.685 461.798 324.808 463.088 318.06C463.79 314.348 468.171 314.935 468.235 311.759C468.299 308.582 462.462 298.174 462.002 294.806C461.581 291.681 466.038 288.824 464.122 282.637C462.386 276.999 450.074 277.905 445.246 275.379C440.713 283.696 446.715 288.989 447.711 295.214C449.461 306.159 447.367 322.282 448.171 333.214C448.427 336.594 451.722 342.73 450.266 347.297L454.174 348.024C451.236 353.738 454.097 360.078 453.79 365.066C453.714 366.303 452.283 367.693 452.092 369.237C451.9 370.78 453.395 377.873 449.691 377.35C445.017 376.699 444.263 370.678 443.344 367.03L437.839 364.976C431.9 345.791 436.907 324.923 429.921 305.955C425.975 305.228 428.503 309.833 423.561 308.506C424.468 297.574 420.227 284.984 419.793 274.537C419.704 272.42 419.895 271.539 421.683 270.251L431.9 274.039L435.987 291.63L438.861 293.199L439.972 271.718C428.567 268.95 418.542 263.758 407.712 271.654C405.425 273.325 406.102 276.131 403.586 277.713C400.253 279.805 396.422 278.951 392.948 277.93V285.584L400.432 285.749C401.862 286.655 401.952 296.324 403.433 298.033C404.723 299.526 408.337 298.556 409.563 300.508C411.109 302.957 411.275 309.973 412.373 312.69C413.625 315.79 416.473 315.637 416.92 316.427C417.75 317.907 416.818 320.866 417.482 322.869C421.134 333.928 428.005 344.299 427.367 356.302C427.009 363.216 423.637 369.556 423.331 376.482L421.581 378.612C420.802 378.868 420.125 378.498 419.397 378.357C407.277 376.061 413.637 364.083 412.45 355.958C411.441 349.134 404.8 344.643 401.85 337.219C396.294 323.252 391.262 302 387.137 286.923C386.486 284.538 386.996 280.749 385.975 279.18C383.523 275.43 371.147 277.7 368.619 281.081C367.495 282.573 367.61 285.277 367.329 285.558C366.997 285.902 362.233 284.716 358.095 287.165C356.371 288.186 348.721 295.189 348.006 295.52C347.725 295.648 342.131 295.342 341.888 295.163C338.325 292.51 343.37 289.665 342.642 288.135C340.739 284.104 335.643 286.158 332.923 283.823C329.449 280.851 327.342 273.312 324.57 269.154C313.983 253.26 305.145 251.181 290.445 242.073C286.192 239.433 282.182 231.269 276.793 236.486C275.746 237.494 270.356 247.341 269.347 249.446C265.758 256.972 262.604 273.529 258.811 278.428C257.176 280.545 256.755 280.902 253.881 280.507C252.872 274.932 257.061 271.31 258.721 266.871C263.217 254.791 266.448 242.124 273.996 231.435C266.014 224.712 254.826 210.719 244.2 209.265C231.097 207.479 223.702 210.987 218.939 223.309C214.175 235.631 218.121 247.584 218.275 259.472C218.428 271.361 217.266 283.275 218.147 295.163C218.415 298.85 220.637 301.886 220.765 305.381C221.046 313.264 215.644 319.387 216.997 329.451C217.406 332.462 223.409 345.996 225.184 348.024C226.704 349.759 228.926 349.325 230.918 349.312C230.139 356.685 224.149 358.93 224.609 367.604C224.75 370.245 227.879 378.753 229.564 380.602C231.761 383.013 239.347 382.541 232.144 385.628C236.474 391.496 233.281 390.654 231.557 395.195C223.485 416.446 212.962 438.004 212.566 460.888C212.438 468.197 214.124 474.601 214.341 481.82L258.389 458.924L258.172 456.219L255.171 454.421C253.651 449.484 269.82 442.303 273.089 439.19C281.71 430.988 284.583 412.033 298.542 413.015L292.144 434.164L295.899 438.004C299.513 448.553 265.516 457.929 266.716 463.261C267.508 466.794 279.615 472.598 283.166 474.333L281.965 479.244C289.973 479.907 292.361 489.78 297.878 493.339C300.049 494.742 308.376 497.446 309.756 499.934C315.669 510.636 295.541 499.015 293.459 500.942C293.894 502.523 295.745 508.978 296.307 509.552C296.959 510.215 305.298 511.924 304.928 513.034C303.638 516.835 300.177 512.128 298.095 512.562L294.673 518.736L290.931 518.774C290.522 518.443 289.794 510.164 289.232 508.34C285.375 495.724 277.01 477.585 261.033 479.269C257.853 479.601 256.129 482.458 254.366 482.739C252.374 483.058 249.117 481.412 245.72 481.846C244.022 482.063 232.068 486.4 231.301 487.28C230.535 488.16 230.969 490.38 229.692 491.349C227.406 493.097 220.88 491.936 218.837 495.839C217.585 498.225 214.379 516.568 214.392 519.591C214.418 525.28 216.014 522.333 214.622 531.148C214.009 535.064 214.494 539.133 213.077 542.96C214.66 544.503 225.618 535.944 228.045 535.485C231.736 534.783 233.306 537.755 234.737 537.258C236.819 536.543 240.241 532.64 242.796 531.25C256.486 523.813 261.646 525.254 276.844 527.678C275.235 533.967 279.245 536.161 285.132 536.658C290.024 537.079 307.482 532.525 311.62 529.91C320.701 524.183 320.994 497.982 324.123 495.877C330.496 491.591 327.916 503.365 328.044 504.079C328.287 505.419 331.722 514.922 332.335 514.909C341.288 501.63 354.851 504.909 341.901 519.387C337.993 523.749 329.883 524.502 341.39 528.877C344.213 532.385 331.262 538.992 328.351 540.255C324.443 541.939 320.777 543.47 316.397 542.972C315.63 542.181 318.427 536.046 313.217 537.883C308.708 539.464 317.418 543.419 313.664 546.646C301.939 547.552 303.932 557.182 289.321 551.531C283.281 549.197 282.91 544.12 281.684 543.227C281.097 542.794 268.887 540.332 267.265 540.332C260.254 540.319 251.34 545 245.363 545.141C237.138 545.319 238.108 542.296 228.428 548.789C223.473 552.105 211.506 567.846 207.943 558.93L214.303 552.526C213.115 550.358 207.892 555.754 207.304 557.016C204.188 563.688 217.777 577.082 215.005 585.067L211.174 586.368C208.888 580.972 202.042 578.753 199.743 573.472C198.568 570.78 196.385 559.427 196.423 556.43C196.474 552.361 200.318 531.913 202.259 529.03C205.503 524.17 205.286 532.283 209.22 531.517C208.952 523.213 209.194 515.164 210.829 507.001C211.187 505.202 215.593 499.117 211.212 499.717C208.926 500.023 206.665 501.439 204.124 500.929C202.144 494.78 208.683 492.446 209.207 487.433C210.318 476.654 205.631 463.197 207.189 451.232C209.296 435.019 217.381 422.123 222.617 407.9C223.549 405.387 228.057 390.705 227.866 389.378C227.598 387.44 219.411 378.778 218.683 376.1C216.972 369.76 223.792 355.869 223.051 352.731C222.732 351.404 217.968 346.404 216.64 343.763C207.981 326.517 213.485 321.912 214.367 305.368C215.567 282.981 210.561 258.222 211.787 235.236C213.013 212.25 225.018 198.588 249.028 205.655C260.509 209.035 265.924 218.666 276.026 224.304C280.573 222.965 280.407 217.072 281.493 215.452C283.025 213.143 289.347 205.145 292.144 207.836C295.669 211.217 282.719 224.189 280.688 227.595L293.114 237.098C305.196 243.757 319.028 251.104 327.15 262.712C329.743 266.411 332.399 275.902 334.889 277.917C337.597 280.099 341.173 278.836 344.161 280.035C346.614 281.017 346.703 285.635 350.164 285.584L377.597 269.639C376.026 267.725 373.28 267.317 371.939 265.11C365.336 254.166 360.062 237.251 354.455 225.223C352.501 221.039 350.611 216.612 347.022 213.564C355.349 206.446 356.831 220.745 359.104 225.682C361.122 230.057 374.723 258.758 376.971 258.783C379.04 252.763 383.395 247.38 385.196 241.537C388.682 230.172 388.593 217.48 390.496 206.051C391.581 199.545 392.82 194.124 393.714 187.338C394.033 184.901 394.953 183.906 397.38 184.914C401.569 186.662 397.571 191.215 397.111 193.55C393.459 211.944 393.778 230.197 387.878 248.043C385.924 253.949 375.924 266.667 385.988 268.937C387.916 269.371 396.881 270.544 398.376 270.277C399.474 270.085 401.786 265.57 402.067 265.493C402.961 265.251 404.659 266.616 405.987 266.195C417.622 262.597 420.84 260.161 434.084 262.929C444.148 265.034 451.338 272.955 461.811 271.539L449.742 165.729L453.497 163.242L455.425 166.431C458.184 191.802 459.206 217.467 461.913 242.775C462.041 243.987 462.488 247.571 464.34 247.329L490.201 165.474L494.327 161.966C497.136 163.828 495.731 164.594 495.425 166.801C494.071 176.265 487.864 187.95 485.144 197.364C480.981 211.842 479.282 227.008 473.292 240.951L473.356 240.925ZM627.736 234.573C623.751 234.943 616.293 232.557 616.267 238.387L626.395 239.624L627.749 234.573H627.736ZM584.352 237.124C589.447 257.444 606.127 275.851 623.93 286.26C631.746 277.037 628.132 264.013 631.427 252.979C628.834 244.127 625.118 246.04 618.758 244.191C607.544 240.925 596.318 236.257 584.352 237.137V237.124ZM671.12 367.107C656.688 365.346 643.24 346.863 640.584 333.252C638.962 324.923 640.609 312.932 638.949 305.572C638.566 303.876 636.995 300.393 634.786 300.84C631.823 302.702 633.636 303.71 633.713 305.649C633.93 310.56 634.658 315.56 634.019 320.484C632.934 328.941 628.183 337.564 626.51 345.919C627.084 353.024 633.84 356.927 636.408 362.91C637.978 366.558 643.406 384.595 644.07 388.511C644.53 391.292 643.24 393.703 644.019 396.037C644.734 398.193 651.886 407.913 654.53 405.336C655.756 395.871 661.056 384.723 665.743 376.38C667.685 372.923 671.835 371.431 671.12 367.107ZM885.474 393.856V416.153C891.604 421.472 887.875 405.323 888.679 402.747L885.474 393.856ZM650.699 421.906C646.74 417.365 645.207 440.644 645.616 442.29C651.414 438.182 648.285 428.284 650.699 421.906ZM807.645 534.056L780.864 526.402C780.251 529.591 781.426 528.673 783.329 529.604C789.944 532.87 799.063 533.303 805.947 536.403L807.645 534.056Z" fill="#2647D7"/>
<path d="M301.284 804.438C309.266 845.027 311.029 886.701 311.514 928.03L372.127 886.28L374.937 889.163C368.206 911.881 353.161 930.823 343.417 952.253L376.597 957.981L442.918 977.127L347.223 997.511L358.436 1016.9C389.713 1054.91 413.991 1098.23 446.762 1135.12C448.831 1136.1 446.954 1138.18 446.098 1138.31C444.412 1138.55 429.585 1131.09 426.763 1129.61C388.602 1109.53 354.656 1080.93 318.308 1058.25C309.445 1052.73 298.985 1049.87 291.757 1041.71C287.006 1045.81 279.956 1048.01 275.154 1051.66C254.784 1067.12 234.082 1087.52 213.877 1103.87C202.396 1113.16 181.54 1131.65 169.318 1137.1C167.799 1137.78 166.79 1138.81 164.797 1138.3C164.491 1136.46 164.887 1134.99 165.5 1133.29C171.668 1116.31 189.012 1095.64 195.193 1077.55C202.703 1067.92 207.211 1056.43 213.494 1046.14C216.521 1041.19 240.978 1009.37 237.517 1005.78L138.859 987.702L136.713 984.118L224.746 954.779C221.681 947.342 216.968 940.556 213.929 933.107C207.581 917.545 196.508 889.864 192.447 874.277C191.809 871.802 191.247 869.455 191.579 866.865C193.66 866.355 194.542 867.286 196.074 868.103C203.788 872.185 216.649 889.239 224.094 896.127C234.222 905.49 251.617 921.754 262.37 929.318C263.456 930.084 263.647 931.079 265.563 930.568C267.44 923.336 266.955 915.721 268.245 908.386C270.263 896.918 273.213 884.379 276.15 872.95C280.403 856.444 290.173 821.888 297.402 807.512C298.334 805.663 298.551 803.89 301.297 804.413L301.284 804.438Z" fill="#2647D7"/>
<path d="M1223.59 804.213L1224.95 807.3L1275.88 836.69C1276.02 839.828 1254.86 839.598 1252.32 839.891C1241.9 841.091 1231.63 843.82 1221.05 843.705L1246.49 911.899L1243.56 913.633C1235.23 906.949 1225.41 901.962 1216.81 895.711C1208.22 889.461 1200.31 881.042 1192.36 875.544C1191.27 874.792 1191.09 873.771 1189.16 874.281L1140.04 969.849C1138.24 968.688 1138.27 967.336 1138.05 965.461C1135.03 939.974 1140.45 913.085 1140.71 887.726C1140.8 878.555 1138.96 869.638 1139.18 860.48L1060.3 840.529L1126.62 822.046C1128 820.515 1113.81 805.387 1112.1 802.797C1106.15 793.766 1103.54 782.847 1097.84 773.688L1099.29 771.137L1154.69 787.656L1172.57 692.089C1176.09 689.448 1179.19 705.419 1179.61 707.332C1184.45 729.374 1186.53 753.177 1191.76 775.487C1192.06 776.814 1192.15 778.204 1193.74 778.689C1198.06 780.003 1256.95 741.645 1266.14 737.742L1269.52 738.622C1270.34 742.589 1250.07 771.29 1246.31 776.597C1240.81 784.365 1233.45 795.488 1227.41 802.364C1226.4 803.512 1225.11 804.149 1223.59 804.251V804.213Z" fill="#2647D7"/>
<path d="M389.142 606.675C394.621 598.856 398.733 591.075 403.267 584.467C404.723 582.337 407.712 582.503 409.589 580.589C411.466 578.676 418.797 568.752 419.742 566.52C419.985 565.946 420.074 564.428 419.129 564.632C414.212 576.176 397.533 568.267 403.804 560.792C406.013 558.152 415.145 560.856 418.478 556.978L415.936 562.068C425.081 563.803 426.907 555.103 428.069 548.049C431.952 549.146 437.239 549.223 437.073 554.478C426.626 561.711 423.114 574.926 413.382 583.115L417.226 583.753C415.924 592.414 409.768 591.177 405.004 595.118C401.428 598.078 392.131 610.578 389.129 614.954C388.401 616.012 387.329 616.178 387.865 618.13C389.615 620.579 413.357 621.638 417.635 622.454C438.235 626.409 458.324 634.19 478.286 639.037C484.506 640.542 489.601 638.17 493.024 638.488C494.148 638.59 494.442 642.979 496.945 642.456C501.466 642.94 508.758 634.827 511.632 631.536C513.241 629.7 513.905 626.23 515.489 625.133C516.574 624.38 519.806 625.401 522.066 624.457C522.411 624.317 527.903 620.452 528.26 620.133C531.415 617.39 533.765 612.811 532.104 608.55C512.666 604.928 494.71 594.812 476.306 587.796C458.439 600.654 439.219 611.714 418.478 619.418L419.704 612.377L458.35 593.983C460.559 589.021 468.503 586.891 469.461 581.801C470.534 576.099 467.647 569.364 471.696 563.981C469.729 559.823 464.57 559.415 462.003 556.175C457.596 550.626 453.19 538.495 450.049 531.811C444.966 526.606 439.385 538.444 430.227 534.477C424.365 529.362 427.405 520.471 433.855 516.937C436.741 515.356 439.155 515.7 441.709 514.82C442.756 514.463 442.705 512.562 443.586 512.371C445.898 511.886 458.261 514.692 462.181 515.241C463.586 515.432 465.004 516.976 466.281 517.001C471.785 517.078 485.604 507.855 491.07 506.554C499.793 504.488 513.279 508.289 510.048 519.106C507.749 526.823 494.403 522.882 491.772 528.979C490.265 532.5 493.331 542.118 491.913 546.825C490.725 550.741 483.663 553.764 480.7 558.611C479.882 559.95 476.153 568.369 476.077 569.3C475.859 571.915 481.658 573.944 475.872 575.436L480.329 579.722L483.509 577.349L482.296 582.936C487.137 587.656 493.19 588.013 499.142 590.424C507.571 593.83 519.218 599.813 526.83 602.287C532.73 604.201 550.98 601.637 544.825 611.229C542.385 612.964 538.017 608.333 535.834 612.441C535.565 613.933 537.864 615.234 538.132 616.472C539.269 621.74 513.445 645.593 505.361 645.032C505.157 646.116 504.914 647.596 505.476 648.527C507.277 651.576 545.706 661.347 551.862 666.271C553.1 666.079 554.237 662.712 555.642 661.475C573.739 645.479 633.79 627.952 657.749 629.572C667.033 630.197 675.513 634.942 683.329 635.873C689.115 636.562 693.879 634.292 699.549 635.784C711.069 626.715 720.89 614.737 735.283 610.26L756.573 595.22C760.136 600.616 753.84 604.264 754.121 608.627C754.261 610.834 756.739 611.88 756.535 616.025C756.305 620.719 752.818 624.878 752.754 629.61L773.674 623.22L775.589 627.569L752.742 636.001C751.975 641.588 758.872 644.127 763.482 645.007L766.113 642.379C769.523 646.397 775.513 649.05 774.415 655.109C773.457 656.066 762.627 651.448 760.545 650.492C756.803 648.782 751.873 644.598 749.523 643.655C745.615 642.098 749.217 649.446 750.162 650.67C752.256 653.426 763.495 659.855 767.135 661.793C768.412 662.47 770.366 661.449 771.796 662.151C775.117 663.758 779.804 671.743 784.325 672.776C786.764 673.338 788.208 670.837 790.481 670.493C820.187 665.977 840.263 692.88 845.283 718.774C845.908 722.027 848.565 729.731 844.836 729.183L844.619 730.905C849.484 735.778 854.503 740.689 858.68 746.174C860.008 747.909 859.638 750.332 860.634 751.863C863.431 756.187 871.234 754.899 865.295 764.376C863.724 766.877 860.519 767.668 859.919 771.048C870.749 767.425 878.973 777.63 884.171 785.781C894.733 784.607 904.988 780.092 915.755 777.77C935.576 773.51 956.444 771.8 976.278 766.851C992.97 762.68 1012.64 753.1 1029.29 750.983C1032.2 750.613 1035.06 749.631 1037.22 752.577C1037.11 755.243 1024.37 755.702 1021.87 756.34C1008.9 759.606 995.461 765.958 982.676 769.441C958.296 776.086 932.523 778.051 908.117 784.186C905.397 784.875 890.697 790.105 889.778 791.393C888.347 793.383 892.83 802.695 894.324 803.588C894.989 803.983 905.716 805.323 907.76 805.463C942.332 807.887 977.172 796.432 1011.73 802.938L1009.71 807.887C1000.26 807.453 988.283 804.073 979.203 804.098C961.731 804.149 938.577 810.31 920.493 810.68C912.792 810.833 904.989 808.333 896.904 810.578C898.105 819.635 909.612 817.862 917.262 820.184C930.416 824.176 954.171 834.61 966.687 840.912C969.037 842.098 981.948 850.02 983.047 851.333C984.95 853.617 982.115 855.045 980.212 854.918C978.883 854.829 961.412 842.966 957.555 841.116C948.462 836.741 934.554 831.268 924.937 827.824C917.236 825.056 909.305 822.875 901.387 820.783L899.944 823.398C901.08 826.88 899.982 844.037 897.415 844.892C888.884 847.724 893.66 839.203 894.056 836.422C896.802 817.199 889.701 810.413 881.055 795.195C879.344 792.184 878.884 787.962 876.47 784.48C874.938 782.273 862.537 771.992 861.183 773.637C862.371 780.104 858.309 785.475 856.457 791.215C853.801 799.43 853.495 800.386 853.584 808.627C853.673 815.77 853.38 822.939 853.495 830.082C862.958 836.958 873.265 848.298 885.423 848.821L883.328 855.096L875.219 853.923L878.015 867.699C889.344 869.09 899.88 873.427 910.697 876.501C915.78 877.942 927.172 875.914 919.101 884.41C912.357 882.496 905.155 878.963 898.475 877.202C894.593 876.182 878.973 872.508 876.521 873.669C871.272 876.156 876.074 880.277 879.127 882.509C884.414 886.374 893.162 889.55 898.079 892.892C902.996 896.234 908.999 901.987 914.375 905.929C920.135 910.151 925.538 909.666 923.698 918.901L870.774 883.223C869.331 889.474 856.317 897.905 855.065 901.962C852.907 909.016 859.982 913.047 856.062 920.177C851.502 923.494 851.055 904.13 847.824 903.798L822.269 912.549C818.156 916.299 814.044 949.988 811.043 958.687C809.983 961.761 808.693 968.343 804.402 967.323C801.72 965.499 803.176 965.422 803.431 963.866C805.117 953.419 810.2 940.995 812.537 930.879C813.891 925.024 814.248 918.506 815.232 912.549L787.16 911.261C783.457 907.919 800.353 901.426 801.183 902.332L801.247 907.383C806.777 908.174 811.413 909.551 816.93 907.498L823.699 892.089L828.003 892.79L824.159 906.146C826.049 907.982 844.976 900.24 847.594 898.352C848.629 897.612 849.88 897.204 849.51 895.571L844.567 875.582L851.681 876.794L850.94 885.022C852.141 886.374 852.805 894.448 855.385 893.415C856.1 893.122 865.053 882.19 865.053 881.297C862.652 875.531 853.073 876.029 854.772 867.942C861.451 866.564 864.082 874.587 870.059 874.307C874.044 866.411 867.722 857.163 872.6 850.721L851.719 836.141C848.22 839.011 847.134 842.889 843.967 846.346C829.727 861.908 798.374 880.8 779.076 889.818C775.347 891.566 771.209 893.173 767.378 894.729C766.088 895.252 764.721 896.681 764.172 894.027C763.763 892.05 772.933 880.634 774.402 879.919C776.675 878.822 777.556 881.514 779.574 881.374C784.695 881.016 810.289 865.288 815.64 861.347C818.591 859.178 821.886 853.872 822.894 853.298C824.746 852.252 827.301 852.839 829.944 851.423C847.058 842.302 850.212 816.918 845.768 799.812C844.733 795.833 841.298 795.08 839.74 791.814C838.003 788.179 838.833 782.86 837.032 780.5C835.321 778.268 819.536 776.239 815.972 777.438C810.915 775.461 804.057 774.288 801.107 769.224C798.54 764.81 801.592 758.266 806.253 756.391C808.578 755.447 826.266 752.36 828.859 752.373C831.885 752.373 833.993 754.554 837.249 754.248C841.745 753.827 847.53 749.873 852.23 749.388C852.358 740.306 828.182 732.423 826.866 730.14C824.261 725.637 831.158 723.404 833.75 728.992C836.074 729.948 835.998 727.41 835.627 725.841C833.929 718.71 821.949 714.641 825.449 707.345C827.696 705.648 836.956 715.981 836.943 718.8C841.758 718.417 837.709 706.911 836.688 706.261C835.717 705.648 833.482 706.503 832.205 705.699C830.787 704.806 818.565 691.323 817.301 689.346C814.018 684.206 815.449 679.932 807.62 677.343C805.845 676.756 790.225 673.822 792.282 678.644C795.832 682.382 800.685 684.69 804.427 688.185C808.463 691.974 817.645 701.133 820.404 705.355C821.426 706.924 821.975 707.893 821.617 709.87C817.773 713.544 801.362 693.747 797.99 690.8C786.688 680.94 773.789 674.639 761.963 665.684C760.89 664.868 760.111 664.243 760.366 662.737L758.438 665.276C765.794 671.96 771.567 677.317 773.15 687.637C773.597 690.494 768.655 691.056 766.816 690.175C763.431 684.741 740.417 669.524 745.092 662.725L750.8 665.276C753.227 663.554 753.457 661.73 751.567 659.434C751.132 658.898 741.094 652.392 739.983 651.882C723.878 644.586 705.615 642.366 688.068 640.287C664.747 637.519 653.866 632.34 628.911 637.812C610.546 641.843 587.047 648.642 570.699 658.681C564.492 662.495 557.162 671.934 550.597 671.577C547.902 671.424 545.029 669.039 542.781 669.141C539.959 669.281 539.307 673.159 535.31 672.942C529.997 672.649 518.477 663.209 512.871 660.811C509.078 659.178 504.85 658.86 501.032 657.342C490.764 653.273 482.603 647.915 470.764 648.719C469.895 653.426 477.737 651.181 479.704 653.17C479.704 654.637 469.985 651.882 470.738 657.622L468.759 655.033C460.189 657.597 451.172 651.742 442.271 651.04C433.331 645.542 451.773 640.172 449.065 637.251C438.669 635.771 428.312 629.559 417.724 629.521C413.561 629.508 412.131 632.085 408.963 632.213C406.639 632.302 397.201 629.138 396.779 629.598C396.332 631.511 397.226 632.595 397.967 634.139C402.207 642.94 422.003 672.968 428.606 679.996C446.077 698.556 450.789 704.373 462.475 727.729C468.197 739.145 474.914 750.728 480.419 762.055C493.203 788.409 472.156 820.681 461.224 844.981C459.665 848.425 459.959 856.372 454.838 855.147C451.798 854.42 454.787 848.68 455.438 846.856C462.488 827.212 476.651 806.203 480.674 785.424C483.356 771.571 471.517 760.869 465.987 749.707C456.856 731.288 450.151 708.85 435.706 693.301C416.754 672.917 407.865 658.694 392.718 635.555C390.266 631.804 385.592 630.095 387.788 624.636L381.492 623.271C376.281 635.427 366.511 646.257 359.219 657.75C339.564 688.747 322.974 718.71 302.016 749.72C298.223 755.333 293.753 765.716 289.398 770.257C284.647 775.193 283.013 771.775 285.72 766.583C294.749 749.261 313.472 727.856 324.558 709.807C346.32 674.371 365.017 641.116 389.104 606.688C383.408 608.18 377.635 610.17 375.094 603.435L373.344 602.976C359.168 613.155 346.141 625.159 333.574 637.238C296.154 673.185 258.747 718.57 225.823 758.993C220.05 766.073 214.52 776.15 208.594 782.554C207.215 784.046 202.911 789.786 200.906 786.368C200.127 785.028 208.913 772.476 210.51 770.461C229.437 746.582 250.624 722.422 270.484 699.092C289.053 677.279 307.533 655.518 328.593 635.976C330.624 632.021 318.581 628.245 323.996 622.544L327.878 621.97L326.614 625.771L331.748 625.044L333.612 630.86L348.287 617.467C349.653 614.29 342.821 616.115 340.956 613.972C340.458 613.398 339.181 608.678 339.5 608.117L345.745 605.387C341.62 607.989 344.366 613.627 346.971 611.714C347.239 611.51 347.099 608.64 349.104 608.015C351.326 607.313 358.414 609.086 362.003 605.718L400.228 573.765L404.429 573.51L403.88 579.964C401.313 579.62 389.346 588.613 389.078 589.467C388.9 590.029 388.708 592.644 389.755 592.618L399.334 586.266L386.767 596.649L389.129 606.637L389.142 606.675ZM488.81 521.44C493.714 521.976 511.095 519.182 502.322 513.379C495.234 508.697 483.088 515.891 476.051 519.514C474.186 520.471 472.999 523.15 471.172 523.647C466.587 524.897 461.607 520.407 457.456 519.935C454.582 519.603 444.238 519.756 440.777 519.859C438.733 519.922 438.465 523.762 435.132 522.601L435.106 526.326C441.964 529.234 449.499 523.519 456.166 528.902C460.342 532.27 458.324 536.199 459.525 539.605C459.665 540.013 461.939 544.35 462.833 546.378C464.365 549.822 466.702 554.146 470.163 555.677C474.161 555.499 470.355 536.02 469.665 533.507C475.872 526.989 475.08 536.658 476.524 541.709L480.342 550.6C492.935 545.498 483.433 531.352 488.81 521.453V521.44ZM747.671 610.502C732.972 615.438 719.383 624.164 709.396 635.963C714.964 635.389 736.599 648.119 740.06 645.632L747.671 610.502ZM851.004 792.733C851.081 787.426 855.615 783.089 856.074 777.91C856.432 773.841 854.261 770.282 854.823 766.672C855.385 763.063 861.285 761.315 859.357 758.279C855.078 751.531 842.945 760.448 837.479 760.818C832.498 761.162 827.224 757.59 821.668 759.593C820.992 763.79 826.969 761.468 831.081 763.573C838.412 767.323 846.202 783.153 848.424 790.87C848.961 792.746 847.722 793.077 851.004 792.733Z" fill="#2647D7"/>
<path d="M135.235 230.733L127.585 304.641C134.469 302.026 140.638 302.817 147.343 302.09C163.473 300.342 176.27 294.704 159.999 314.731C157.304 318.047 143.639 330.012 144.239 333.163C157.419 343.074 166.359 354.504 176.678 367.107C179.641 370.717 185.439 373.383 184.98 378.549L125.031 369.632C125.248 376.176 124.686 382.822 125.031 389.378C126.129 409.941 128.083 429.815 128.786 450.607C128.914 454.229 133.026 465.314 124.278 458.924C122.898 457.916 115.529 442.685 114.188 439.7C110.88 432.353 94.7886 387.478 89.795 386.291L44.6867 412.403C42.158 413.449 39.8847 413.411 38.25 411.012L56.1554 360.295L20.4084 333.316C20.434 330 61.8897 321.058 67.5857 319.922L45.172 276.667C43.9715 275.047 44.9166 271.833 46.5641 271.501C49.1439 270.991 81.7363 292.025 86.0913 295.699L130.369 231.001L135.21 230.72L135.235 230.733Z" fill="#2647D7"/>
<path d="M947.555 103.494L1001.13 109.884C1001.71 112.078 1000.21 112.436 999.228 113.698C991.348 123.929 965.524 129.669 953.915 136.008L999.164 187.657L999.853 192.696C970.505 183.384 942.025 171.521 913.66 159.594C889.982 167.044 867.836 178.6 843.213 183.422C841.681 183.728 834.516 185.642 833.992 183.116C832.894 177.784 856.904 143.917 859.318 136.174C848.705 122.666 834.056 112.984 822.051 100.764C818.373 97.0137 819.28 95.1131 824.35 94.5135C835.486 93.1997 851.234 96.5417 862.702 97.1157C869.267 97.4474 875.908 96.9117 882.472 97.1157C881.527 75.5838 873.941 55.1871 876.099 33.4128C878.041 31.2315 886.125 43.2858 887.108 44.7017C892.817 52.9293 900.505 65.0219 905.205 73.7724C906.725 76.5915 909.803 87.7657 912.434 87.9697L975.677 51.9598L980.709 51.8833L947.529 103.494H947.555Z" fill="#2647D7"/>
<path d="M916.087 497.714L919.254 495.814C920.876 496.758 920.94 498.39 921.54 499.883C922.383 501.962 921.936 514.769 921.885 518.162C921.732 528.124 922.511 524.744 924.694 533.712C927.376 544.72 924.694 551.34 912.485 552.093C911.221 563.178 905.895 570.028 897.326 576.648C897.53 587.414 907.287 586.738 915.167 590.386C924.145 594.532 927.07 597.198 938.539 598.907C941.476 599.341 958.705 601.101 959.484 600.297C961.093 594.787 954.337 595.539 952.191 593.575C949.816 591.419 945.116 582.796 942.153 580.015C937.159 575.334 927.198 574.199 935.984 564.67C936.942 564.479 944.694 568.956 945.588 570.308C947.351 572.949 945.244 575.219 949.318 580.526C954.567 587.376 961.974 592.644 967.772 599.009C972.932 594.366 960.518 591.802 969.1 586.304C973.953 586.483 974.452 597.057 976.814 597.708L1000.3 591.355C1001.09 587.694 995.997 588.09 993.238 586.317C985.46 581.304 978.079 576.265 971.578 569.734C975.333 562.234 979.1 569.926 981.987 572.081C986.227 575.245 992.012 578.969 996.584 581.712C999.764 583.625 1005.84 588.498 1009.19 586.967C1010.1 586.547 1023.49 575.449 1024.54 574.186C1025.74 572.732 1033.17 560.41 1032.19 559.542L998.525 558.394C993.149 558.968 970.173 564.645 968.475 558.713C970.314 549.376 979.611 544.682 983.277 555.779L991.897 554.593C991.923 541.416 1010.89 536.811 1002.84 553.164C1011.72 551.404 1023.29 556.047 1031.53 554.427C1035.69 553.611 1035.22 549.235 1039.23 548.151C1040.4 548.292 1041.68 552.335 1042.94 553.266C1046.02 555.55 1080.61 554.427 1087.75 554.504C1090.76 554.529 1093.49 553.1 1096.56 553.139C1099.97 553.177 1111.97 555.027 1115.72 555.779C1118.19 556.277 1119.92 557.603 1120.25 560.18C1120.48 562.4 1120.31 562.183 1118.29 562.157C1112.76 562.068 1106.14 559.785 1100.49 559.491C1096.84 559.3 1093.47 560.486 1090.47 560.359C1074.21 559.644 1058.26 558.203 1042.02 558.56C1037.29 559.963 1030.91 576.329 1027.02 580.513C1025.56 582.082 1014.43 588.689 1014.27 589.557L1015.61 593.333C1029 602.402 1046.9 607.339 1059.6 616.931C1065.78 621.612 1071.3 629.304 1076.8 634.164C1079.67 636.69 1090.91 643.017 1090.94 645.555L1088.95 648.77C1058.53 635.912 1036.98 609.749 1007.96 594.493C996.52 597.159 985.601 603.576 973.507 602.887C973.021 605.004 974.183 605.463 975.435 606.675C1005.06 635.402 1040.93 663.656 1073.08 690.124C1074.51 691.298 1076.33 691.693 1078.04 692.178L1074.95 699.653C1073.72 699.781 1061.63 686.132 1059 683.785C1033.12 660.697 1005.58 638.272 979.202 615.655C976.904 613.691 967.415 605.948 965.129 605.515C962.842 605.081 960.071 605.515 957.645 605.361C956.406 605.706 957.146 607.9 956.431 608.742C951.297 614.788 925.41 626.154 917.428 627.812C911.872 628.96 886.815 627.506 885.64 628.564C885.218 628.947 885.295 631.549 884.235 632.838C881.783 635.823 878.271 637.94 876.508 641.78L879.063 644.292L866.93 650.964C859.829 646.372 867.045 644.777 869.688 641.945C874.043 637.277 877.351 630.975 882.894 627.748C880.825 623.245 860.238 623.755 854.503 619.495C852.205 617.786 851.796 613.487 847.786 613.092C831.055 618.449 813.635 619.814 796.075 620.018L774.453 641.116C771.132 631.001 786.419 625.171 788.476 620.082C789.485 617.569 784.619 617.798 782.818 615.566C781.911 614.444 781.707 612.02 780.826 610.566L796.1 613.768L831.745 584.301L835.065 587.631L803.788 614.367C810.71 614.52 826.33 612.454 832.243 609.316C833.788 608.499 833.137 605.208 835.078 604.162C843.597 609.762 856.189 604.622 865.014 600.973C873.839 597.325 884.388 593.333 882.907 582.516C886.7 580.487 886.048 590.667 889.254 587.605C890.825 586.113 890.442 579.186 889.267 577.082C888.271 575.296 884.823 575.257 882.856 572.987C879.331 568.918 876.368 555.243 872.051 554.465C867.734 553.687 859.293 556.022 856.738 550.651C854.184 545.281 857.952 539.375 857.185 535.025C856.738 532.512 852.268 528.112 852.268 527.078V499.679C854.427 499.283 854.963 500.163 855.832 501.924C858.526 507.396 856.521 529.693 861.553 531.977C863.456 532.844 869.918 532.576 872.945 533.189C878.577 534.337 883.928 537.398 889.586 536.365C891.834 535.957 910.352 526.083 912.217 524.515C913.52 523.417 916.074 519.463 916.074 518.175V497.791L916.087 497.714ZM908.718 545.779C910.365 543.699 919.292 547.322 921.055 542.092C922.23 538.316 918.015 531.747 915.461 528.954C907.977 533.227 897.057 540.88 888.501 541.569C879.944 542.258 872.524 536.492 863.788 537.857L865.129 549.261C882.281 545.779 878.424 558.088 885.461 566.545C897.351 580.832 907.696 555.83 908.73 545.779H908.718ZM916.866 598.282C910.403 595.374 904.094 592.006 897.555 589.251C894.835 593.039 891.093 591.917 888.066 593.345C886.483 594.098 885.295 596.496 883.354 597.555C873.929 602.67 864.542 606.905 854.861 611.127C856.789 613.308 858.501 615.005 861.234 616.242C868.679 619.61 896.483 624.164 905.039 624.036C916.304 623.858 918.539 620.949 927.594 617.518C931.808 615.923 945.346 613.334 946.329 608.627L944.86 605.655C939.624 605.77 934.299 602.861 929.407 601.662C923.239 600.144 923.52 601.292 916.866 598.282Z" fill="#2647D7"/>
<path d="M1036.02 377.299C1036.42 380.207 1036.09 380.577 1033.93 382.21C1029.99 385.182 1024.27 388.383 1019.65 390.246C1018.97 399.086 1021.32 407.198 1020.76 416.217C1019.69 433.552 1012.37 457.839 998.896 469.562C987.938 479.103 972.97 476.527 960.748 481.782L962.012 476.693C948.909 478.938 938.411 468.644 930.135 460.123C929.956 461.577 924.758 475.621 922.472 472.853C922.434 470.187 922.217 467.521 922.766 464.868C924.005 458.898 938.935 433.45 943.494 429.508C946.291 427.098 950.531 426.281 953.494 424.202C963.111 417.467 974.579 410.604 979.905 400.221L982.319 400.387L984.337 402.747L992.012 395.119L993.264 397.67C1001.17 390.641 1011.22 388.766 1019.93 384.773C1025.4 382.273 1029.47 376.482 1036.01 377.273L1036.02 377.299ZM1014.34 392.593L997.849 402.122C1003.01 408.984 1001.55 420.388 999.969 428.577C997.325 442.252 992.357 453.069 978.615 458.248C977.236 458.77 975.384 457.699 974.362 458.018C971.604 458.86 969.484 462.291 965.857 461.398L967.146 457.597C962.498 457.023 955.486 454.472 953.698 449.982C951.655 444.841 948.104 432.391 956.827 433.271C956.98 431.218 957.887 428.985 954.988 429.534C946.636 431.103 940.85 448.132 934.567 453.757L934.081 456.194C938.092 458.031 940.301 462.865 944.247 465.786C956.789 475.085 980.671 475.889 993.251 466.462C1006.49 456.538 1014.73 430.848 1015.59 414.877C1016.01 407.033 1014.09 400.297 1014.32 392.593H1014.34Z" fill="#2647D7"/>
<path d="M617.11 722.231C614.122 727.193 614.326 728.175 612.334 731.977C610.699 735.076 605.079 737.768 604.773 741.135C604.709 741.811 605.807 750.243 606.152 750.587C606.701 751.136 614.109 749.797 612.423 755.129C611.388 758.407 604.083 755.601 602.257 758.968C604.671 763.318 609.102 761.392 612.5 762.731C614.211 763.407 626.088 769.288 626.944 769.964C629.639 772.081 632.755 779.314 636.28 780.972C649.728 787.299 660.673 778.459 673.661 776.176C675.692 784.391 659.779 787.108 653.521 788.536C644.441 790.628 632.563 787.822 623.879 784.48C618.528 782.413 615.309 774.415 607.327 776.176C608.962 779.403 610.06 784.454 605.424 785.079C600.801 780.194 592.985 769.67 586.165 768.573C575.029 766.787 571.516 776.38 562.717 780.679C558.234 782.873 553.483 783.255 549.46 785.271C543.841 788.103 534.186 797.657 527.021 802.364C524.492 804.035 522.398 808.78 518.975 807.81C517.724 807.453 516.689 805.578 515.029 805.68C512.015 805.872 508.324 811.204 505.885 813.117C504.237 814.418 501.849 814.66 500.061 816.217C498.72 817.377 484.046 841.18 482.283 831.562C482.028 830.184 494.403 813.372 496.459 811.344C502.986 804.915 518.911 793.447 527.047 787.095C530.201 784.633 546.638 774.926 547.085 772.846C547.302 771.826 546.306 770.359 546.178 769.224L547.34 767.833C552.104 769.543 550.674 766.354 552.768 765.512C555.961 764.224 557.762 767.055 562.589 763.981C568.272 760.384 570.431 754.325 574.134 750.026C576.306 747.5 587.263 733.954 588.183 733.38C590.329 732.079 592.678 734.515 594.569 733.558C595.922 732.87 596.318 730.535 597.557 729.374C599.613 727.461 603.904 724.54 606.063 721.67C609 717.754 617.276 700.572 623.227 702.243C628.387 703.697 618.885 719.208 617.084 722.218L617.11 722.231Z" fill="#2647D7"/>
<path d="M346.639 565.614C346.396 566.035 341.773 565.793 346.396 569.696L350.956 567.783L353.204 568.727L353.433 572.26H354.685C354.136 568.395 359.628 569.913 363.076 568.522C372.795 564.606 383.523 556.761 394.251 558.267C396.996 560.996 382.156 566.022 381.415 566.558C380.074 567.54 382.578 570.818 377.584 574.11C370.164 579.008 370.994 572.056 365.694 572.273C363.791 572.349 358.082 574.556 356 575.474C338.044 583.358 319.474 592.848 303.97 604.15C298.81 607.913 292.106 610.4 287.699 615.579C281.697 614.699 291.518 610.221 293.332 608.448C294.685 607.135 296.576 606.624 296.001 604.124C295.362 603.486 282.527 611.395 280.803 612.505C233.191 643.4 188.926 675.302 149.935 716.274C146.18 720.216 129.297 738.329 126.334 739.86C124.354 740.88 122.477 739.375 122.515 738.559C122.541 738.01 128.275 730.42 128.952 729.719C136.704 721.657 145.529 713.48 153.55 705.202C185.772 671.909 245.592 628.386 286.691 603.078C292.655 599.404 310.547 593.473 312.323 589.212C313.114 587.325 311.939 584.761 313.855 583.064C320.177 577.49 322.003 586.495 324.532 586.138L344.493 576.048L343.842 573.497L339.347 574.275C337.469 565.486 327.916 568.778 330.458 558.216C308.031 562.757 285.618 571.979 265.784 583.447C232.195 602.874 198.581 621.319 167.228 644.305C157.266 651.614 147.074 658.987 138.416 667.789L135.248 664.625C137.138 662.674 139.003 660.722 141.021 658.911C169.207 633.501 205.631 615.094 238.172 596.649C256.078 586.495 271.837 573.612 291.327 565.627C306.818 559.274 324.966 556.8 339.474 550.001C342.425 548.61 346.626 543.687 350.075 544.439C351.837 544.822 352.258 547.552 354.774 547.462C358.912 547.309 366.55 542.998 370.854 541.161C371.288 540.982 371.352 539.286 372.182 539.107C377.405 537.947 380.125 544.044 389.168 539.745C394.225 537.334 392.552 532.028 398.772 531.479L405.63 538.469C405.63 542.539 378.925 546.467 374.519 548.036C372.028 548.917 370.074 551.557 369.219 551.71C367.942 551.94 365.885 549.108 361.939 549.325C358.644 549.503 334.353 555.409 334.34 557.565C338.338 564.887 342.961 558.79 347.061 562.68C347.137 563.764 347.252 564.53 346.665 565.563L346.639 565.614Z" fill="#2647D7"/>
<path d="M641.784 815.655H649.434L648.872 819.559L647.327 820.566C637.442 819.865 628.528 824.049 620.494 829.521L614.977 826.472L596.433 856.513C588.643 856.028 593.1 850.581 594.569 846.27C594.007 845.695 583.228 851.742 580.61 852.086C577.991 852.431 575.871 851.091 573.598 851.321C559.32 852.762 551.057 863.86 539.907 870.021C534.084 873.248 532.04 870.748 535.91 866.028C538.528 862.827 547.417 857.291 550.342 853.961C554.377 849.356 545.476 848.642 541.619 848.68C538.017 848.719 522.551 849.535 520.176 850.109C519.269 850.326 519.499 852.099 518.337 852.545C517.008 853.056 514.888 852.418 512.934 853.285C511.108 854.089 506.153 859.982 507.788 861.551L511.619 862.814C508.413 863.809 505.233 866.398 502.692 868.554C498.682 871.96 498.158 876.973 492.5 875.57L500.176 855.849L495.565 851.27C495.706 850.377 503.994 843.093 505.003 842.558C507.2 841.371 532.002 832.429 533.93 832.225C544.25 831.09 554.288 835.363 563.343 839.483C567.915 836.46 582.883 817.543 587.532 818.232C589.639 818.551 588.962 820.337 588.566 821.753C586.855 827.876 572.972 838.208 570.341 844.369C569.179 847.099 572.027 846.04 573.189 845.951C589.294 844.586 586.306 838.96 595.003 830.133C598.311 826.778 630.43 802.249 633.253 801.318C637.493 799.927 638.425 802.836 642.423 803.04C650.328 803.435 661.733 799.889 671.746 800.667C673.84 800.833 683.815 801.764 683.84 803.576C680.954 810.987 669.97 807.53 662.729 808.053C656.114 808.525 643.1 807.849 641.771 815.694L641.784 815.655Z" fill="#2647D7"/>
<path d="M811.911 439.292C817.913 444.497 823.967 449.892 828.105 455.951C828.782 456.946 832 463.975 831.885 464.549C828.922 468.644 827.288 464.893 824.861 462.687C813.712 480.902 796.636 495.737 773.814 493.25C767.671 492.586 754.925 484.882 751.477 479.882C745.743 471.539 740.034 451.64 739.906 441.627C739.842 436.358 742.869 425.592 742.141 421.166C741.886 419.584 733.227 416.676 736.177 410.426C744.3 411.931 754.593 410.617 762.256 411.778C775.411 413.768 801.873 430.593 811.898 439.292H811.911ZM761.72 418.066C754.491 419.559 748.246 413.002 746.483 422.608C743.725 437.723 745.181 459.472 753.801 472.47C765.002 489.359 780.238 492.14 798.143 483.122C804.197 480.073 817.594 465.939 819.472 459.727C821.349 453.515 803.099 438.884 801.272 441.014C801.975 461.794 773.699 483.058 762.486 457.431C756.381 443.476 760.57 432.328 761.72 418.066Z" fill="#2647D7"/>
<path d="M669.575 587.822C669.856 587.962 669.945 589.519 670.775 590.093C673.802 592.185 691.26 583.88 696.075 582.528C702.755 580.653 710.788 579.186 717.71 578.638C719.523 578.497 720.072 578.446 719.613 580.526C719.383 581.572 714.874 580.717 717.71 583.74C740.443 580.347 764.338 577.515 787.224 579.888C787.237 574.237 780.264 576.431 776.458 575.946C769.216 575.028 770.941 568.025 770.647 562.055L771.911 565.856L779.599 563.892C782.167 565.907 782.524 571.801 784.031 573.523C785.372 575.053 787.926 574.671 789.663 575.538C790.94 576.176 791.783 577.923 793.226 578.357C797.888 579.748 812.511 577.796 818.194 577.056C820.11 576.814 825.717 572.949 826.764 576.712C828.565 583.204 811.809 581.406 807.645 582.452L810.314 584.454L808.91 588.804C809.816 589.633 816.841 583.306 817.85 588.205C818.999 593.843 811.4 594.302 807.313 593.6C794.593 591.394 806.304 585.947 806.343 584.352C801.438 579.862 793.584 583.587 787.926 583.766C758.821 584.684 733.061 582.809 704.606 591.024C697.633 593.039 691.043 596.917 683.891 597.733C683.61 601.815 688.68 603.053 690.788 605.489C692.18 607.096 697.901 616.612 693.47 616.803C690.762 616.918 679.242 602.019 672.985 601.586C671.056 601.445 651.631 606.267 648.106 607.224C646.012 607.785 631.197 615.834 632.857 608.576C633.483 605.808 665.411 596.522 663.47 593.919C655.756 591.636 607.072 571.316 603.534 574.811C602.768 596.84 572.551 611.408 553.113 607.925C549.958 607.364 549.575 605.884 549.92 602.836C563.394 603.129 583.879 598.307 592.615 587.49C595.91 583.421 595.578 574.9 600.954 576.061C601.312 572.77 600.98 574.02 599.102 573.472C596.548 572.732 588.809 570.117 587.276 569.938C584.862 569.658 582.793 571.354 580.239 570.755C578.4 570.321 576.484 567.451 574.607 567.323C572.73 567.196 571.516 569.823 569.882 569.568C569.154 569.454 557.915 562.157 557.596 561.379C555.603 556.468 570.827 561.596 572.41 561.877C583.688 563.879 597.34 567.119 609.039 570.168C616.139 572.017 623.904 573.88 630.865 576.125C638.872 578.702 654.9 587.529 661.899 588.575C664.849 589.021 667.863 586.942 669.587 587.784L669.575 587.822Z" fill="#2647D7"/>
<path d="M728.553 707.345L732.971 704.781C735.372 707.511 738.284 711.452 740.979 713.736C742.461 714.986 745.602 715.266 747.595 716.988C749.727 718.838 751.183 723.596 752.805 724.604C754.134 725.433 767.084 721.81 765.538 728.341C765.027 730.51 737.084 739.911 733.712 743.763L728.553 742.271C725.321 745.128 723.661 749.223 720.238 751.94C692.333 774.007 672.154 768.42 649 744.707C648.157 743.84 645.82 744.63 644.543 742.169C644.185 741.467 640.609 727.882 640.571 727.002C640.188 718.749 652.934 696.069 658.808 689.946C681.49 666.335 720.341 675.468 728.553 707.332V707.345ZM714.044 692.51C699.459 677.739 676.471 679.55 662.819 694.589C657.008 700.993 644.939 719.616 647.186 728.061C647.697 729.974 661.299 749.172 663.138 750.715C663.7 751.187 674.057 757.692 674.696 757.909C694.836 764.721 722.537 751.085 727.927 730.318C730.66 719.795 721.439 700.01 714.032 692.51H714.044ZM742.32 724.106L733.636 717.55C735.602 724.285 732.69 730.229 731.094 736.658L742.32 727.538V724.106Z" fill="#2647D7"/>
<path d="M704.044 539.503C704.606 540.306 704.262 541.926 704.313 542.972C705.807 542.411 707.007 541.735 708.719 541.658C718.974 541.25 727.071 545.613 737.033 546.723C742.32 547.309 742.946 546.008 749.229 548.394C760.468 552.667 762.192 549.963 771.03 551.927C771.835 552.106 771.822 554.134 774.606 554.899C780.749 556.583 786.534 555.384 793.559 557.693C794.491 557.999 803.865 561.149 801.273 563.356C797.811 564.428 795.5 561.303 792.933 560.869C745.181 552.935 675.922 546.046 628.528 552.016C622.282 552.807 616.178 557.042 609.907 554.427C605.552 548.738 631.159 547.564 632.576 547.195C634.875 546.595 635.973 547.513 635.411 544.248C615.795 543.75 597.123 549.146 578.055 552.565C576.178 552.896 574.25 551.927 572.525 552.195C567.992 552.909 569.333 557.004 565.259 556.966L571.274 548.33C598.464 543.546 623.547 539.158 651.452 540.37C667.646 541.072 683.827 544.694 700.494 542.947C703.202 540.6 695.002 540.153 699.217 538.469C700.749 537.857 703.291 538.38 704.083 539.49L704.044 539.503Z" fill="#2647D7"/>
<path d="M582.64 387.937C601.504 406.471 605.131 449.765 580.993 465.046C566.651 474.129 547.647 477.93 531.21 473.083C529.026 472.445 512.717 465.633 511.951 464.906C511.325 464.319 503.675 451.831 502.986 450.288C494.889 432.2 501.798 405.31 513.522 390.003C521.568 379.505 534.876 374.594 548.005 374.645C553.994 374.671 559.524 378.6 565.169 380.539C572.781 383.154 575.322 380.743 582.64 387.937ZM510.751 453.362C526.983 473.172 554.952 475.353 576.6 461.934C582.972 457.98 590.559 450.403 591.951 442.864C595.284 424.725 592.615 407.505 579.767 393.983C573.585 387.478 566.574 387.299 558.503 384.633C548.63 381.368 550.865 378.191 538.388 381.725C528.107 384.633 520.661 388.588 514.965 397.823C506.115 412.186 498.95 438.986 510.738 453.362H510.751Z" fill="#2647D7"/>
<path d="M381.045 394.315C382.271 395.221 382.846 397.912 384.595 399.035C386.601 400.323 388.976 399.94 391.019 401.548C399.142 407.913 405.323 427.646 405.834 437.8C406.856 457.814 399.666 469.779 382.373 479.486C361.901 490.966 327.214 485.902 314.89 464.83C287.891 418.653 338.81 362.948 381.032 394.302L381.045 394.315ZM378.491 399.405C363.995 387.912 342.195 388.817 328.542 401.509C323.204 406.471 312.489 422.072 311.352 428.998C310.56 433.871 312.833 437.455 313.408 441.831C314.353 448.961 312.604 449.561 316.997 457.61C318.683 460.709 330.93 474.422 333.485 475.494C338.006 477.407 358.031 481.974 362.82 481.591C372.578 480.8 392.91 470.098 397.341 461.296C399.308 457.406 401.288 440.67 400.572 436.614C400.24 434.7 398.414 433.488 398.222 431.511C398.095 430.185 399.5 428.526 399.053 426.689C396.371 415.452 387.086 406.229 378.478 399.405H378.491Z" fill="#2647D7"/>
<path d="M791.043 800.387C788.936 809.367 777.224 808.958 770.136 811.982C755.002 818.462 744.67 828.118 728.949 833.169C714.159 837.927 659.09 887.05 645.552 900.355C632.334 913.327 622.385 928.226 611.146 942.449C609.945 943.967 601.057 954.172 600.393 954.644C598.49 956.021 596.791 956.021 594.569 955.83C593.151 954.465 602.027 943.138 603.521 941.212C631.184 905.317 671.784 867.712 707.518 839.904C713.112 835.555 720.328 833.424 725.373 829.7C727.314 828.271 728.297 825.12 728.783 824.84C730.366 823.947 734.095 824.916 736.522 824.278C741.95 822.85 752.805 816.625 757.326 813.142C759.025 811.829 758.833 807.619 761.72 809.29C762.014 809.456 758.565 812.505 762.32 811.816C770.558 806.713 775.538 800.221 785.64 799.366C787.697 799.187 789.14 800.068 791.043 800.374V800.387Z" fill="#2647D7"/>
<path d="M817.607 360.984C822.524 360.537 823.392 362.438 825.372 366.596C829.446 375.168 831.477 394.978 830.468 404.558C830.148 407.619 826.138 424.534 823.597 424.419C821.374 419.814 816.713 422.888 814.721 419.291C813.839 417.697 811.208 409.252 810.544 406.854C808.22 398.448 806.93 385.22 807.633 376.648C808.246 369.173 809.459 361.724 817.607 360.984Z" fill="#2647D7"/>
<path d="M755.768 845.415C722.333 881.119 686.19 916.401 658.936 957.055C655.514 958.509 647.097 972.859 644.977 972.387C643.381 972.043 642.985 969.862 643.253 968.191C643.738 965.167 661.363 942.959 664.773 938.661C687.059 910.559 712.652 886.553 736.688 860.11C740.43 855.99 741.682 848.961 742.844 847.788C743.878 846.729 747.582 846.499 749.625 845.007C751.669 843.514 752.358 840.963 754.172 839.356C756.675 837.136 769.945 824.534 771.26 824.521L774.427 826.472C770.724 828.22 769.945 833.501 768.144 835.465C766.164 837.634 758.833 842.111 755.756 845.389L755.768 845.415Z" fill="#2647D7"/>
<path d="M518.349 361.073C517.289 362.808 518.733 367.209 514.837 367.094C512.883 364.186 510.291 361.545 508.222 358.968C507.596 358.19 507.954 356.519 507.507 356.009C506.178 354.529 502.947 355.18 502.602 353.534C502.041 350.894 503.982 341.021 504.046 337.219C504.25 323.634 503.943 310.139 504.352 297.294C504.39 295.916 503.841 293.645 505.923 293.199C510.917 292.115 512.679 308.455 513.867 312.001C516.319 319.297 520.048 326.033 521.53 333.661C522.283 337.564 524.314 353.356 523.879 356.328C523.484 359.032 519.077 359.912 518.362 361.073H518.349Z" fill="#2647D7"/>
<path d="M1094.71 429.547C1095.73 430.606 1088.84 446.283 1087.57 448.528C1084.23 454.408 1076.61 464.728 1072.27 470.2C1069.69 473.465 1057.16 486.719 1053.28 485.596C1051.68 485.137 1051.14 482.866 1051.31 481.221C1051.83 475.851 1074.5 452.278 1071.73 448.642C1069.2 450.313 1066.93 451.895 1064.07 453.081C1058.08 455.556 1049.78 457.686 1043.65 458.235L1042.47 455.11C1044.97 455.314 1045.78 451.959 1046.56 451.551C1048.22 450.671 1050.73 451.423 1052.62 450.607C1061.05 446.908 1070.86 441.831 1079.01 437.43C1083.9 434.789 1087.38 429.317 1094.71 429.547Z" fill="#2647D7"/>
<path d="M862.498 416.804C861.221 418.015 854.784 415.082 853.584 413.589C851.962 411.574 852.754 409.545 851.962 408.219C851.221 406.994 847.122 406.42 846.189 403.155C844.056 395.756 844.503 379.301 843.214 370.449C842.473 365.359 841.464 360.984 839.408 356.251L845.487 350.639C847.543 350.243 849.791 353.738 850.71 355.307C853.533 360.078 862.69 386.776 863.494 392.248C864.682 400.387 863.622 408.78 862.511 416.804H862.498Z" fill="#2647D7"/>
<path d="M783.393 837.328C783.955 839.904 782.818 840.733 781.541 842.481C777.697 847.724 770.966 853.005 766.279 859.102C750.724 879.384 730.736 908.072 717.007 929.68C705.334 948.062 696.79 968.382 685.258 986.852L678.783 988.97L705.807 938.877C714.364 925.841 722.857 912.626 731.796 899.844C733.865 896.885 740.775 890.851 741.911 888.275C742.844 886.157 742.154 882.751 742.767 882.063C743.099 881.68 745.168 882.33 746.471 881.093C755.296 872.763 764.67 846.231 777.824 838.769C779.625 837.749 781.234 836.996 783.38 837.328H783.393Z" fill="#2647D7"/>
<path d="M909.573 433.22C905.269 436.358 900.033 430.095 899.778 426.141C899.637 423.985 901.859 422.454 901.77 420.209C901.655 417.352 898.935 414.354 899.395 409.775C900.084 402.747 900.799 406.573 899.79 398.027C898.794 389.544 896.879 363.714 898.501 356.532C899.471 352.208 905.014 348.738 907.824 345.434C916.7 349.159 907.453 363.65 907.441 367.961C907.441 369.811 909.714 371.24 909.803 374.033C909.88 376.469 908.334 379.684 908.334 383C908.347 399.711 910.25 416.434 909.573 433.208V433.22Z" fill="#2647D7"/>
<path d="M382.399 361.124C380.062 359.44 372.705 359.951 372.514 358.726C373.701 343.84 372.105 324.247 377.686 310.407C379.64 305.547 381.747 306.082 384.34 310.113C389.155 317.614 393.139 355.397 388.912 362.387C385.374 368.242 383.804 362.132 382.411 361.124H382.399Z" fill="#2647D7"/>
<path d="M947.811 401.331C945.639 403.04 941.042 402.07 939.343 403.078C937.989 403.895 937.823 409.227 932.179 407.976C926.01 399.991 926.597 385.462 927.709 375.525C928.322 370.053 930.863 359.402 934.72 355.69C938.398 355.078 943.839 372.821 944.631 375.908C945.716 380.169 949.471 398.703 947.811 401.331Z" fill="#2647D7"/>
<path d="M664.249 445.377C670.635 448.961 668.476 450.938 671.082 454.433C676.126 461.207 690.583 475.022 692.256 481.731C692.831 484.014 692.831 484.065 690.877 485.609C688.399 483.874 680.979 482.892 679.421 481.897C676.165 479.83 661.733 460.11 660.277 460.148L655.82 463.937L655.922 454.561L660.903 452.444L659.651 445.517L662.231 444.178C663.1 444.254 663.674 445.058 664.249 445.39V445.377Z" fill="#2647D7"/>
<path d="M539.601 495.903L537.8 502.141C528.528 498.276 521.248 498.646 512.615 491.91C510.086 489.946 507.404 484.844 505.182 483.721C503.522 482.879 501.261 484.384 499.256 482.739C495.655 479.767 497.583 474.154 496.204 470.06C495.885 469.09 494.135 469.065 493.867 468.07C493.164 465.404 490.763 454.064 491.823 452.456C494.084 448.4 499.026 457.291 499.486 458.924C500.406 462.164 497.392 465.748 499.486 469.065C502.155 472.33 505.808 469.562 508.503 472.738C511.581 476.374 512.321 483.721 516.063 486.923C522.015 492.012 532.117 494.194 539.601 495.903Z" fill="#2647D7"/>
<path d="M666.19 833.309L663.483 829.062C664.926 827.187 667.084 826.625 669.166 825.809C677.123 822.684 716.19 810.438 722.359 811.254C723.751 811.446 726.956 812.53 727.263 813.767C728.374 818.245 716.305 817.939 714.223 818.551C700.558 822.582 685.603 824.98 672.091 829.993C670.201 830.694 669.319 832.238 667.889 833.463L666.203 833.309H666.19Z" fill="#2647D7"/>
<path d="M412.769 462.674C416.396 461.806 416.23 468.44 415.873 470.863C415.272 474.932 406.792 493.084 403.867 495.839C401.339 498.212 391.313 504.105 393.229 496.707C397.367 493.097 410.777 463.146 412.769 462.674Z" fill="#2647D7"/>
<path d="M783.201 350.715C783.827 351.442 785.832 367.17 784.67 369.645C783.597 370.589 774.299 365.091 773.137 363.969C769.676 360.576 765.449 347.781 772.601 346.633C774.069 346.404 782.805 350.256 783.201 350.715Z" fill="#2647D7"/>
<path d="M839.242 448.948C839.944 449.803 839.497 452.189 840.276 453.604C841.796 456.398 852.92 474.09 843.98 472.47C843.456 472.381 835.449 466.871 835.142 466.437C833.316 463.745 826.943 447.29 832.639 446.142C833.878 447.01 838.884 448.489 839.242 448.948Z" fill="#2647D7"/>
<path d="M710.686 652.558C713.738 650.198 732.116 670.582 733.125 674.128C734.568 679.269 729.268 677.726 726.586 675.532C723.904 673.338 713.751 663.362 711.963 660.837C709.613 657.533 709.179 656.602 710.686 652.558Z" fill="#2647D7"/>
<path d="M1032.19 480.519C1030.59 490.877 1029.59 501.63 1016.15 495.852C1014.36 493.403 1020.02 483.351 1022.55 481.68C1026.11 479.333 1028.73 482.356 1032.19 480.519Z" fill="#2647D7"/>
<path d="M799.982 757.042C796.751 757.692 796.777 756.608 795.091 754.937C792.435 752.309 782.486 742.615 781.515 740.446C780.723 738.686 780.149 737.206 782.115 735.982C788.871 731.76 802.856 753.993 799.982 757.042Z" fill="#2647D7"/>
<path d="M918.654 426.983C919.471 421.523 917.249 417.454 919.228 411.586C922.894 400.744 935.116 421.421 927.53 425.133L918.654 426.983Z" fill="#2647D7"/>
<path d="M618.438 480.787C621.337 480.111 625.999 479.639 627.685 482.56C628.451 485.137 622.091 494.296 619.447 494.615C614.313 495.227 615.194 488.543 611.21 486.247C613.215 484.078 615.411 481.489 618.451 480.787H618.438Z" fill="#2647D7"/>
<path d="M849.561 582.273C847.684 585.271 827.62 584.276 834.452 574.811L837.633 577.337C842.179 565.384 853.801 575.5 849.561 582.273Z" fill="#2647D7"/>
<path d="M281.748 284.015C275.465 288.658 270.126 299.73 261.557 299.551C259.181 297.383 278.006 278.581 280.675 277.892L281.748 284.015Z" fill="#2647D7"/>
<path d="M945.512 344.095C945.193 343.827 944.056 337.117 944.069 335.88C944.12 328.367 945.767 325.931 953.111 326.926C955.039 328.201 953.852 328.877 953.8 330.14C953.634 333.367 951.808 349.21 945.525 344.108L945.512 344.095Z" fill="#2647D7"/>
<path d="M917.785 643.234C918.5 644.267 921.259 644.037 921.067 646.589C920.965 647.941 918.654 651.691 916.751 651.27C913.635 650.568 903.52 634.7 910.365 630.899C914.311 630.07 915.665 640.185 917.785 643.234Z" fill="#2647D7"/>
<path d="M1081.03 475.736C1083.71 473.555 1096.42 472.598 1098.52 477.318L1091.83 482.739L1080.63 481.183C1078.7 480.086 1079.84 476.693 1081.03 475.723V475.736Z" fill="#2647D7"/>
<path d="M341.939 586.291L340.675 590.092C346.601 585.5 354.506 595.552 348.299 598.422C338.21 600.259 329.015 588.957 341.939 586.291Z" fill="#2647D7"/>
<path d="M555.425 271.144C553.126 267.789 550.38 260.365 549.92 256.245C553.202 252.98 563.202 271.769 563.7 273.708C564.096 275.264 563.33 277.905 562.027 277.879C561.555 277.879 555.693 271.539 555.425 271.144Z" fill="#2647D7"/>
<path d="M518.017 536.594L512.909 542.309C519.422 543.903 522.436 550.447 512.845 548.776C497.456 546.097 508.924 537.334 518.017 536.594Z" fill="#2647D7"/>
<path d="M814.005 553.151C815.538 557.17 815.449 561.456 812.039 564.594L801.272 557.591L803.316 554.504C807.837 556.264 809.868 554.248 814.005 553.151Z" fill="#2647D7"/>
<path d="M286.908 318.532C286.588 318.991 283.894 319.234 282.808 320.101C281.429 321.198 271.786 330.625 270.497 324.387C270.126 322.601 282.387 314.386 284.047 312.422C286.946 311.925 288.032 316.938 286.908 318.532Z" fill="#2647D7"/>
<path d="M864.925 437.277C866.802 442.099 871.821 448.681 865.717 452.227C859.97 449.867 860.161 445.811 859.101 440.287L864.925 437.277Z" fill="#2647D7"/>
<path d="M811.285 795.463C816.943 804.468 798.948 809.392 801.541 798.805C802.792 793.664 809.267 792.261 811.285 795.463Z" fill="#2647D7"/>
<path d="M534.428 574.99C536.587 578.676 537.838 581.852 537.136 586.279L525.667 581.801C525.259 579.85 531.759 573.357 534.428 574.99Z" fill="#2647D7"/>
<path d="M852.281 564.619C849.944 566.583 839.74 556.736 845.934 553.777C853.316 550.243 854.657 559.172 852.281 564.619Z" fill="#2647D7"/>
<path d="M546.076 562.068C540.022 562.82 533.637 560.486 537.021 553.7L543.637 552.412L546.089 562.068H546.076Z" fill="#2647D7"/>
<path d="M952.677 532.946C955.167 532.729 960.863 539.579 958.232 541.072C948.194 545.421 942.434 533.852 952.677 532.946Z" fill="#2647D7"/>
<path d="M975.409 513.927C980.071 515.802 985.575 520.726 980.544 525.088L972.332 520.509C971.629 517.664 972.894 515.228 975.409 513.927Z" fill="#2647D7"/>
<path d="M852.192 437.328C853.252 438.833 849.369 443.706 847.837 444.803L840.838 435.274C844.95 430.248 848.13 435.912 852.192 437.328Z" fill="#2647D7"/>
<path d="M572.87 544.235C564.288 544.937 559.409 533.89 570.341 534.605C573.317 537.156 574.173 540.587 572.87 544.235Z" fill="#2647D7"/>
<path d="M900.71 441.053C901.834 441.792 903.111 456.245 897.594 453.745C892.549 451.461 895.538 437.66 900.71 441.053Z" fill="#2647D7"/>
<path d="M795.717 857.89C802.831 855.479 807.301 865.646 799.497 865.327C793.303 865.072 789.893 859.867 795.717 857.89Z" fill="#2647D7"/>
<path d="M511.632 567.183L509.601 573.637C505.195 574.007 501.632 572.528 498.912 569.084C502.041 565.537 507.545 567.68 511.645 567.183H511.632Z" fill="#2647D7"/>
<path d="M827.53 828.475C832.447 827.021 836.751 832.748 833.226 836.754L828.82 837.213C826.687 836.065 823.942 829.534 827.53 828.475Z" fill="#2647D7"/>
<path d="M742.831 811.637L742.716 808.155C754.644 800.233 755.27 823.015 742.831 811.637Z" fill="#2647D7"/>
<path d="M777.007 859L775.819 866.079L768.08 866.628C766.828 860.224 771.796 859.293 777.007 859Z" fill="#2647D7"/>
<path d="M811.502 819.444L812.856 811.956C824.222 811.05 820.876 822.441 811.502 819.444Z" fill="#2647D7"/>
<path d="M431.364 577.248C430.189 572.375 433.267 570.525 437.009 568.471C440.611 570.793 439.065 577.758 435.54 578.383L431.377 577.248H431.364Z" fill="#2647D7"/>
<path d="M423.918 453.4C421.364 450.364 423.816 445.555 426.792 443.578C431.543 447.52 429.551 460.059 423.918 453.4Z" fill="#2647D7"/>
<path d="M839.254 801.955C840.634 803.282 840.506 807.759 838.718 808.117C834.388 808.117 831.017 807.071 830.583 802.313C830.608 801.165 837.275 800.068 839.242 801.955H839.254Z" fill="#2647D7"/>
<path d="M799.791 835.861L793.61 836.039C793.316 832.659 794.146 829.342 796.841 827.135C801.605 828.13 802 832.174 799.791 835.861Z" fill="#2647D7"/>
<path d="M561.619 585.207L563.93 583.281L566.523 583.064C572.845 593.728 564.313 596.407 561.606 585.207H561.619Z" fill="#2647D7"/>
<path d="M873.98 814.418C872.766 821.829 867.032 819.763 865.065 813.78C868.028 809.507 870.608 813.806 873.98 814.418Z" fill="#2647D7"/>
<path d="M686.139 697.395C695.82 696.069 709.702 706.248 711.669 715.917C715.475 734.617 703.674 744.465 685.807 744.286C659.294 744.031 662.563 700.622 686.152 697.395H686.139Z" fill="#2647D7"/>
<path d="M568.579 444.395C549.78 468.86 519.78 432.876 536.817 409.456C556.331 382.643 588.336 418.679 568.579 444.395Z" fill="#2647D7"/>
<path d="M369.589 418.5C372.067 420.949 379.308 431.422 379.717 434.624C380.151 438.119 378.121 450.199 376.269 452.992C375.732 453.796 361.109 463.414 360.19 463.682C338.159 470.111 330.062 440.338 338.708 424.393C343.28 415.949 348.504 417.084 355.311 412.199C358.082 411.778 367.444 416.37 369.602 418.513L369.589 418.5Z" fill="#2647D7"/>
</g>
<defs>
<clipPath id="clip0_2023_77">
<rect width="1318" height="1296" fill="white" transform="translate(0 -70)"/>
</clipPath>
</defs>
</svg>
